<svg width="100%" height="100%" viewBox="0 0 619 622" fill="none" xmlns="http://www.w3.org/2000/svg">
<g clip-path="url(#clip0_532_2)">
<path d="M278.5 620.4C271.4 619.6 263 618.5 260 617.9C257 617.3 250.8 616.2 246.4 615.5C241.9 614.8 237.4 613.8 236.4 613.2C235.3 612.7 232.7 612 230.5 611.6C223.3 610.4 195 600.5 187.5 596.6C185.8 595.7 183.8 595 182.9 595C182 595 180.7 594.4 180.1 593.6C179.4 592.8 177.6 591.8 176 591.5C174.4 591.2 172.6 590.3 172 589.5C171.4 588.7 169.5 587.8 167.9 587.5C166.3 587.1 164.7 586.4 164.4 585.8C164 585.3 162.3 584.2 160.6 583.4C158.9 582.6 155.7 580.9 153.5 579.5C151.3 578.1 148.4 576.4 147 575.8C145.6 575.1 142.3 572.8 139.5 570.8C136.8 568.7 134 567 133.5 567C132.9 567 131.7 566.2 130.8 565.3C129.9 564.3 126.6 561.7 123.5 559.5C120.4 557.3 116.8 554.6 115.5 553.5C114.3 552.4 110.4 549 106.9 546C99.8 539.9 84.4 524.6 76 515.5C66.7 505.3 48.4 480 42.6 469.5C40.6 465.8 39.1 463.2 36.9 460C36 458.6 34.9 456.3 34.5 455C34.1 453.6 33.2 451.8 32.5 451C31.8 450.2 30.9 448.4 30.5 447C30.1 445.6 29.2 443.8 28.5 443C27.8 442.2 26.9 440.1 26.5 438.3C26.2 436.6 25.2 434.6 24.4 433.9C23.6 433.3 23 432 23 431.1C23 430.2 22.1 427.7 21.1 425.6C20 423.5 18.8 420.4 18.4 418.7C18 416.9 17.2 414.6 16.5 413.5C15.8 412.4 14.9 409.7 14.5 407.5C14.1 405.4 13.2 402.4 12.5 401C11.8 399.6 10.9 396.5 10.5 394C10.1 391.5 9.10004 388.3 8.40004 386.8C7.60004 385.3 7.00004 382.8 7.00004 381.3C7.00004 379.7 6.30004 376 5.50004 373C4.60004 370 3.30004 362.1 2.50004 355.5C1.80004 348.9 0.900039 342.8 0.500039 341.9C0.200039 341 0.700039 339.3 1.70004 338.1C3.50004 335.9 3.50004 335.9 102.4 336C156.8 336 201.5 336.2 201.7 336.4C202.2 336.9 206 346.9 207.2 351C207.7 352.9 208.8 355.6 209.6 357C210.4 358.4 211.4 360.6 212 362C213.1 364.8 213.6 365.5 220 375.5C224 381.8 241 399.8 247.1 404.2C251.9 407.8 257.1 411 257.9 411C258.4 411 259.3 411.6 259.9 412.4C260.6 413.2 262.3 414.1 263.8 414.5C265.3 414.9 267.2 415.8 268 416.5C268.8 417.2 271.4 418.3 273.7 418.9C276 419.6 278.2 420.5 278.5 420.9C278.8 421.4 280.9 422.1 283.3 422.5C285.6 422.8 289.8 423.9 292.5 424.8C299.7 427.2 331.3 427.2 338.5 424.8C341.3 423.9 345.3 422.9 347.4 422.5C349.6 422.1 352.3 421.2 353.4 420.4C354.5 419.6 356.1 419 357 419C359.2 419 374.6 411 381.1 406.5C387.4 402.1 396.2 394.8 400.3 390.5C404.9 385.8 413.6 373.7 417 367.4C418.6 364.3 420.4 361.2 420.9 360.6C421.4 360 422.3 357.6 422.9 355.3C423.5 353 424.5 350.8 425 350.5C425.5 350.2 426.2 347.9 426.6 345.4C426.9 342.9 428.2 339.7 429.4 338.4C431.5 335.9 431.5 335.9 524.3 336C575.4 336 617.6 336.2 618.1 336.5C619.5 337.4 619.2 348.9 617.6 355C616.8 358 615.9 363.7 615.5 367.5C615.1 371.4 614.2 376 613.4 377.8C612.7 379.6 611.8 383.5 611.4 386.3C611 389.2 610.3 392.4 609.7 393.5C609.1 394.6 608.1 397.8 607.4 400.5C605.9 406.5 603.3 414 600.8 419.6C599.8 421.8 599 424.2 599 424.8C599 425.5 598.1 427.7 597 429.7C595.9 431.8 595 434.2 595 435.1C595 436 594.3 437.3 593.5 438C592.7 438.7 592 439.7 592 440.3C592 441.6 585.9 454.3 585 455C584.6 455.3 583.9 456.6 583.5 458C583.1 459.4 581.9 461.6 580.9 462.9C579.8 464.2 579 465.7 579 466.1C579 466.6 577.2 469.6 575 472.7C572.8 475.9 571 479 571 479.6C571 480.2 570.1 481.5 569 482.5C567.9 483.5 567 484.9 567 485.7C567 486.4 566.6 487 566.2 487C565.7 487 563.5 489.8 561.3 493.3C559.1 496.7 556.1 500.7 554.7 502.2C553.3 503.8 551.7 505.6 551.3 506.4C547.1 513.5 520.2 540.4 504.5 552.9C493.4 561.8 471.9 576.8 466 579.8C464.6 580.5 461.7 582.1 459.5 583.5C457.3 584.8 454.4 586.4 453 586.9C451.6 587.5 449.8 588.5 449 589C448.2 589.6 446.4 590.5 445 591.1C442.5 592.1 438.1 594.1 429.7 598C427.3 599.1 424.8 600 424.1 600C423.5 600 421.9 600.6 420.7 601.4C419.5 602.2 416.9 603.1 415 603.5C413.1 603.9 411 604.7 410.3 605.2C409.6 605.7 406.7 606.7 403.8 607.5C400.9 608.2 397.2 609.3 395.5 609.8C389.5 611.9 380.3 614.1 372.4 615.4C367.9 616.2 363.7 617.1 363.1 617.5C362.4 617.9 355.3 618.9 347.2 619.7C326.7 621.8 294.5 622.1 278.5 620.4Z" fill="black"/>
<path d="M382.316 311.006C382.316 347.399 352.813 376.901 316.42 376.901C280.027 376.901 250.524 347.399 250.524 311.006C250.524 274.613 280.027 245.11 316.42 245.11C352.813 245.11 382.316 274.613 382.316 311.006Z" fill="black"/>
<path d="M3.3 286C1.7 285.3 1 284.2 1 282.3C1.1 276.5 3.8 254.4 4.8 251.9C5.4 250.5 6.1 246.7 6.5 243.4C6.9 240.2 7.8 236.4 8.5 235C9.2 233.6 10.1 230.5 10.5 228C10.9 225.5 11.8 222.4 12.5 221C13.2 219.6 14.1 216.6 14.5 214.5C14.9 212.3 15.8 209.6 16.5 208.5C17.2 207.4 18 205.1 18.4 203.3C18.8 201.6 20 198.5 21.1 196.4C22.1 194.3 23 191.8 23 190.9C23 190 23.6 188.7 24.4 188.1C25.2 187.4 26.2 185.4 26.5 183.7C26.9 181.9 27.8 179.8 28.5 179C29.2 178.2 30.1 176.4 30.5 175C30.9 173.6 31.8 171.8 32.5 171C33.2 170.2 34.1 168.4 34.5 167C34.9 165.7 36 163.4 36.9 162C39.1 158.8 40.6 156.2 42.6 152.5C45.7 146.9 55.5 132.5 63 122.5C71.7 111.1 77.6 104.4 91 90.9999C99.3 82.7999 103.9 78.4999 115.1 68.8999C116.4 67.7999 120.2 64.8999 123.5 62.3999C126.8 59.9999 130.4 57.1999 131.5 56.3999C133.3 54.9999 138.8 51.2999 144.5 47.7999C145.6 47.0999 148.8 45.0999 151.5 43.3999C154.3 41.5999 158.1 39.4999 160.1 38.6999C162.1 37.8999 164 36.6999 164.4 36.1999C164.7 35.5999 166.3 34.8999 167.9 34.4999C169.5 34.1999 171.4 33.2999 172 32.4999C172.6 31.6999 174.4 30.7999 176 30.4999C177.6 30.1999 179.4 29.1999 180.1 28.3999C180.7 27.5999 182 26.9999 182.9 26.9999C183.8 26.9999 185.8 26.2999 187.5 25.3999C191.4 23.3999 201.6 19.4999 218.5 13.5999C221.3 12.5999 226.2 11.1999 229.5 10.4999C232.8 9.6999 237.3 8.6999 239.5 8.0999C257 3.3999 282.7 0.599896 309 0.599896C330.6 0.499896 354.1 2.1999 362.5 4.4999C365.3 5.2999 370 6.1999 373 6.4999C376 6.8999 381.1 7.9999 384.3 9.0999C387.4 10.0999 391 10.9999 392.3 10.9999C393.5 10.9999 395.8 11.6999 397.3 12.4999C398.8 13.2999 401.8 14.1999 403.8 14.5999C405.8 14.9999 408.6 15.8999 410 16.5999C411.4 17.2999 414.4 18.3999 416.7 18.9999C419 19.5999 421.2 20.4999 421.5 20.9999C421.8 21.5999 422.8 21.9999 423.7 21.9999C424.6 21.9999 427.3 22.8999 429.7 23.9999C438.1 27.8999 442.5 29.8999 445 30.8999C446.4 31.4999 448.2 32.3999 449 32.9999C449.8 33.4999 451.6 34.4999 453 35.0999C454.4 35.5999 457.3 37.1999 459.5 38.4999C461.7 39.8999 464.6 41.4999 466 42.1999C468.3 43.3999 480.1 50.8999 482.5 52.6999C483.1 53.1999 485.5 54.7999 488 56.4999C497.5 62.7999 517 79.1999 528 90.0999C538.8 100.8 549.5 112.5 551.3 115.6C551.7 116.4 553.3 118.2 554.7 119.8C556.1 121.3 558.8 125 560.8 128C562.7 131 564.8 134 565.4 134.5C567.1 136.1 571 141.8 571 142.7C571 143.1 572.8 146.1 575 149.3C577.2 152.4 579 155.4 579 155.9C579 156.3 579.8 157.8 580.9 159.1C581.9 160.4 583.1 162.6 583.5 164C583.9 165.4 584.6 166.7 585 167C585.9 167.7 592 180.4 592 181.7C592 182.3 592.7 183.3 593.5 184C594.3 184.7 595 186 595 186.9C595 187.8 595.9 190.2 597 192.3C598.1 194.3 599 196.5 599 197.2C599 197.8 599.8 200.2 600.8 202.4C603.3 208 605.9 215.5 607.4 221.5C608.1 224.3 609.1 227.4 609.7 228.5C610.3 229.6 611 232.8 611.4 235.7C611.8 238.5 612.7 242.4 613.4 244.2C614.2 246 615.1 250.7 615.5 254.5C615.9 258.4 616.8 264 617.6 267C619.3 273.7 619.4 284.2 617.8 285.8C616.9 286.7 594.9 287 524.9 287C433.2 287 433.2 287 430.1 284.4C428.2 282.8 427 280.9 427 279.4C427 276 421.3 262.6 415 251C412.6 246.7 402.3 233.5 397.4 228.6C392.6 223.9 382.2 215.6 379.8 214.7C378.8 214.4 378 213.6 378 213C378 212.5 377.4 212 376.6 212C375.9 212 374.2 211.2 372.9 210.1C371.6 209.1 369.4 207.9 368 207.5C366.6 207.1 364.8 206.2 364 205.5C362.4 204.2 354.9 201.4 348.5 199.8C346.3 199.3 342.3 198.1 339.5 197.2C332.3 194.8 300.7 194.8 293.5 197.2C290.8 198.1 286.6 199.2 284.3 199.5C282.1 199.9 279.4 200.8 278.3 201.5C277.3 202.3 275.8 203 274.9 203C272.5 203 258.6 210.4 250.6 215.8C244.9 219.7 231.5 232.1 226 238.6C223.7 241.4 215.9 253.3 214.9 255.5C214.4 256.6 213.6 258.2 213.1 259C211.2 261.9 208.2 269.6 206.6 275C205.7 278 204.1 282 203 283.8C201 287 201 287 103.3 286.9C47.5 286.9 4.5 286.5 3.3 286Z" fill="black"/>
</g>
<defs>
<clipPath id="clip0_532_2">
<rect width="619" height="622" fill="white"/>
</clipPath>
</defs>
</svg>
